<svg width="18" height="20" viewBox="0 0 18 20" fill="none" xmlns="http://www.w3.org/2000/svg">
<g id="vuesax/linear/user">
<g id="user">
<path id="Vector (Stroke)" fill-rule="evenodd" clip-rule="evenodd" d="M9.00033 1.52075C6.84872 1.52075 5.10449 3.26498 5.10449 5.41659C5.10449 7.56819 6.84872 9.31242 9.00033 9.31242C11.1519 9.31242 12.8962 7.56819 12.8962 5.41659C12.8962 3.26498 11.1519 1.52075 9.00033 1.52075ZM3.72949 5.41659C3.72949 2.50558 6.08932 0.145752 9.00033 0.145752C11.9113 0.145752 14.2712 2.50558 14.2712 5.41659C14.2712 8.32759 11.9113 10.6874 9.00033 10.6874C6.08932 10.6874 3.72949 8.32759 3.72949 5.41659Z" fill="white"/>
<path id="Vector (Stroke)_2" fill-rule="evenodd" clip-rule="evenodd" d="M0.438477 19.1667C0.438477 15.1142 4.41417 12.0625 9.00014 12.0625C13.5861 12.0625 17.5618 15.1142 17.5618 19.1667C17.5618 19.5464 17.254 19.8542 16.8743 19.8542C16.4946 19.8542 16.1868 19.5464 16.1868 19.1667C16.1868 16.1241 13.1042 13.4375 9.00014 13.4375C4.89611 13.4375 1.81348 16.1241 1.81348 19.1667C1.81348 19.5464 1.50567 19.8542 1.12598 19.8542C0.746281 19.8542 0.438477 19.5464 0.438477 19.1667Z" fill="white"/>
</g>
</g>
</svg>
