<svg width="20" height="20" viewBox="0 0 20 20" fill="none" xmlns="http://www.w3.org/2000/svg">
<g id="vuesax/linear/clock">
<g id="clock">
<path id="Vector (Stroke)" fill-rule="evenodd" clip-rule="evenodd" d="M10.0002 1.52075C5.31986 1.52075 1.521 5.31961 1.521 9.99992C1.521 14.6802 5.31986 18.4791 10.0002 18.4791C14.6805 18.4791 18.4793 14.6802 18.4793 9.99992C18.4793 5.31961 14.6805 1.52075 10.0002 1.52075ZM0.145996 9.99992C0.145996 4.56022 4.56047 0.145752 10.0002 0.145752C15.4399 0.145752 19.8543 4.56022 19.8543 9.99992C19.8543 15.4396 15.4399 19.8541 10.0002 19.8541C4.56047 19.8541 0.145996 15.4396 0.145996 9.99992Z" fill="#F1F1F1"/>
<path id="Vector (Stroke)_2" fill-rule="evenodd" clip-rule="evenodd" d="M9.66113 5.19653C10.0408 5.19653 10.3486 5.50434 10.3486 5.88403V9.64237C10.3486 9.78312 10.4024 9.98713 10.5219 10.1967C10.6414 10.4063 10.7896 10.5562 10.91 10.6276L10.9118 10.6287L10.9118 10.6287L13.7534 12.3245C14.0795 12.5191 14.1861 12.9411 13.9915 13.2672C13.7969 13.5932 13.3749 13.6998 13.0488 13.5052L10.209 11.8105C10.2087 11.8103 10.2083 11.8101 10.208 11.8099C9.83387 11.5879 9.53317 11.2386 9.32746 10.8778C9.12155 10.5168 8.97363 10.0791 8.97363 9.64237V5.88403C8.97363 5.50434 9.28144 5.19653 9.66113 5.19653Z" fill="#F1F1F1"/>
</g>
</g>
</svg>
